<svg width="29" height="26" viewBox="0 0 29 26" xmlns="http://www.w3.org/2000/svg"><path d="M4.36 0h-.18.182m17.875 17.54l.005-.095c-.015-1.973-.725-3.93-1.94-5.728.52-1.048 1.316-1.796 2.34-1.796.485 0 1.022.173 1.606.56.883.584 1.288 2.19.43 3.38-.703.977-1.006 1.81-1.807 2.675-.274.297-.476.648-.632 1.005m-10.67 3.016c-2.57 0-4.015-1.567-4.015-3.248-.064-1.943.828-2.68 1.41-3.018 1.694-1.012 2.252-3.083.714-4.648.13-.01.258-.015.387-.015 3.187 0 6.35 3.286 6.324 6.745-.026 2.66-1.493 4.15-4.755 4.184h-.066M19.737 0h-.027c-.192.005-2.1.008-4.518.008C11.046.008 5.405.003 4.352 0c-1.47.01-1.69 2.077-.34 2.114.06-.003.123-.005.185-.005 1.933 0 3.397 1.624 3.367 3.274-.032 1.768-3.075 3.92-4.598 5.897C1.556 13.115.242 14.8.252 17.31c.02 4.538 4.75 8.65 11.734 8.69 5.124-.03 8.745-2.678 9.877-6.14.222.58.893 2.02 2.16 2.02.138 0 .28-.018.432-.054.734-.34-.697-1.8.74-3.842.976-1.522 1.77-2.333 2.516-4.112.795-1.887.767-4.338-1.87-6.235-.893-.642-1.86-.876-2.804-.876-2.54 0-4.865 1.715-4.865 1.715l-.045.313c-1.3-1.628-1.774-2.153-1.75-3.443.03-1.616 1.67-3.22 3.33-3.22.052 0 .105 0 .157.005 1.534 0 1.034-2.13-.122-2.13" fill-rule="evenodd"/></svg>