<svg width="27" height="26" viewBox="0 0 27 26" xmlns="http://www.w3.org/2000/svg"><path d="M13.045 24.76c-.483 0-.584-.61-.65-.863 0 0 1.252 0 1.724-.005-.037.23-.56.86-1.065.868h-.01M9.4 14.585c-.145 0-.31-.025-.496-.075-.697-.19-.925-.757-.802-1.147.08-.26.33-.386.693-.386.185 0 .397.034.63.098.697.19.847.652.724 1.043-.09.285-.346.467-.75.467m7.662 0c-.405 0-.66-.182-.75-.467-.123-.39.027-.853.725-1.043.235-.064.446-.098.63-.098.36 0 .613.127.694.386.124.39-.106.958-.8 1.147-.186.05-.35.075-.498.075m-4.612 8.953c-.123 0-.288-.04-.5-.136-.698-.315-2.127-1.648-2.127-3.12 0-2.58 2.667-4.017 2.67-5.68.008-2.965.042-4.087-1.148-4.087-.96 0-.64-1.3 1.82-1.3 2.526 0 2.99 1.3 1.798 1.3-1.192 0-1.07 1.096-1.065 4.086.003 1.666 2.673 3.104 2.673 5.684 0 1.47-1.3 2.764-2 3.078-.22.1-.392.14-.523.14-.476 0-.43-.526-.237-.723.35-.363 1.09-.598.916-1.088-.047-.133-.113-.185-.196-.185-.22 0-.564.38-.996.6-.106.055-.194.078-.276.078-.125 0-.235-.052-.37-.125-.413-.227-.753-.565-.977-.565-.09 0-.16.056-.212.197-.174.49.58.725.93 1.087.196.197.294.76-.176.76M20.594 0H20.5c-5.82.05-6.745 6.24-6.8 8.063-.097-.006-.18-.01-.246-.01-.04 0-.073 0-.1.004l-.66-.033C12.63 6.154 11.68.05 5.898 0h-.092C.886 0 0 3.48 0 5.102c0 1.864.93 4.186 3.717 4.186 3.18 0 4.067-2.538 2.622-3.96-.79.296-.22 1.264-1.914 1.264-1.473 0-1.115-2.622.918-2.622 1.982 0 3.034.7 3.034 4.778-.226.068-.43.137-.57.202-1.26.588-3.312 1.58-5.622 3.577-1.42 1.224-1.176 3.857-.597 4.31.05.04.11.06.177.06.6 0 1.794-1.536 3.31-2.46.267-.164.47-.235.626-.235.678 0 .405 1.39.424 2.488.02.99 1.34 3.038 2.076 3.627.735.586.902 2.743 2.427 3.773.253.864 1.436 1.89 2.5 1.91h.03c1.16 0 2.404-1.025 2.74-1.91 1.525-1.03 1.375-3.187 2.112-3.773.736-.59 1.968-2.636 1.988-3.627.02-1.04-.26-2.557.386-2.557.16 0 .375.09.665.304 1.414 1.035 2.796 2.466 3.437 2.466.078 0 .144-.02.198-.065.645-.528.677-3.087-.742-4.31-2.312-1.997-4.36-2.99-5.624-3.578l-.3-.108c-.017-4.162 1.037-4.872 3.034-4.872 2.033 0 2.39 2.622.918 2.622-1.693 0-1.124-.968-1.912-1.263-1.447 1.42-.556 3.957 2.623 3.957 2.784 0 3.718-2.322 3.718-4.186 0-1.62-.886-5.1-5.804-5.1" fill-rule="evenodd"/></svg>