<svg width="30" height="26" viewBox="0 0 30 26" xmlns="http://www.w3.org/2000/svg"><path d="M17.116 16.16c-.5 0-1.235.524-1.235.98 0 .46.48.662 1.25.662.504 0 1.24-.203 1.24-.66 0-.458-.75-.982-1.253-.982m-4.346-.043c-.5 0-1.252.523-1.252.983 0 .455.736.66 1.24.66.773 0 1.25-.205 1.25-.66 0-.46-.736-.983-1.237-.983m1.884 3.145c-6.277 0-6.51-1.307-6.283-1.893.32-.815 2.28-3.538 3.145-3.537 1.454.002 2.167 1.205 3.28 1.214h.007c.53 0 1.104-.3 1.655-.598.552-.3 1.08-.598 1.505-.598.034 0 .07.002.1.006.858.107 3.058 2.74 3.266 3.586.144.57-.295 1.816-6.673 1.816M22.483 0h-.014c-2.3.004-6.1 1.623-6.13 4.118.02.044.18.06.42.06.225 0 .518-.014.847-.026.333-.012.7-.022 1.07-.022.774 0 1.556.052 2.014.265.763.355.97.617.92 1.43-.003.773-.576 1.334-1.32 1.334h-.01c-.39-.006-.974-.054-1.47-.054-.514 0-.933.052-.937.26-.005 1.84.68 2.665 2.49 2.964.27.047.52.063.75.063.473 0 .87-.073 1.214-.15.343-.076.63-.15.886-.15.138 0 .266.022.388.08.128 1.2.187 2.355-.014 2.72l-1.766.705c-.133.086-.39.193-.663.305-.993-.96-2.08-1.635-3.005-1.64-1.576.004-1.01 1.353-3.244 1.353h-.066c-2.31-.03-1.938-1.352-3.508-1.352-.747 0-1.724.687-2.662 1.66-.29-.12-.573-.234-.715-.326l-1.766-.705c-.2-.365-.14-1.52-.013-2.72.122-.058.25-.08.388-.08.255 0 .542.074.886.15.344.077.74.15 1.215.15.232 0 .48-.016.75-.062 1.81-.297 2.495-1.12 2.49-2.96-.005-.21-.422-.26-.938-.26-.495 0-1.08.046-1.47.05h-.01c-.743 0-1.315-.56-1.32-1.333-.046-.814.16-1.076.92-1.43.458-.214 1.24-.266 2.015-.266.37 0 .737.01 1.07.023.33.012.622.025.845.025.244 0 .4-.015.423-.06C13.408 1.624 9.608.005 7.31 0h-.013C4.147 0 .304 2.523.222 6.467.2 7.663.937 8.62 1.804 9.38c.23 1.444.84 3.068 1.734 3.748l2.108 1.478c.233.146 1.052.524 1.782.796-.168.23-.326.464-.478.7-.16-.003-.324-.004-.487-.004-.537 0-1.092.01-1.673.022-1.104.02-2.81.18-3.516.52-.804.393-.762 1.737-.47 1.737.016 0 .03-.003.045-.01.55-.237 1.935-.315 3.452-.315.194 0 .39 0 .59.004.148 0 .295.003.438.003.2 0 .392-.004.58-.006-.262.652-.403 1.245-.355 1.69-.477.033-.99.075-1.613.15-.784.097-2.38.306-2.98.792-.76.623-.804 2.495-.63 2.495.003 0 .01-.002.016-.006.696-.51 2.107-1.234 2.758-1.323.628-.085 2.048-.11 3.36-.115.236.34.5.678.813 1.01-.09-.002-.18-.004-.276-.004-1.227 0-2.83.154-3.536 1.028-.21.257-.464 1.065-.158 1.842.04.104.078.148.126.148.127 0 .32-.333.803-.71.65-.503 2.085-.6 3.67-.6.5 0 1.01.01 1.52.02 1.49.905 3.33 1.53 5.395 1.53 1.74 0 3.472-.625 4.963-1.522.683-.01 1.39-.03 2.072-.03 1.59 0 3.03.098 3.674.602.485.377.677.71.804.71.047 0 .087-.044.126-.148.308-.777.052-1.585-.156-1.843-.71-.876-2.31-1.03-3.534-1.03-.27 0-.523.008-.742.017.348-.337.647-.68.92-1.02 1.4 0 3.032.02 3.72.115.65.09 2.06.81 2.756 1.322.007.004.012.007.018.007.17 0 .126-1.873-.633-2.496-.6-.486-2.195-.695-2.978-.792-.705-.084-1.28-.13-1.807-.166l.052-.183c.06-.422-.045-.943-.222-1.492.187.003.383.005.583.005.146 0 .293-.003.443-.004l.59-.003c1.518 0 2.904.078 3.454.315.015.007.03.01.043.01.293 0 .336-1.344-.47-1.737-.704-.34-2.41-.5-3.516-.52-.607-.012-1.187-.023-1.75-.023h-.328c-.154-.243-.302-.488-.478-.725.71-.27 1.478-.626 1.7-.766l2.11-1.477c.892-.68 1.503-2.304 1.73-3.748.87-.757 1.607-1.717 1.584-2.913C29.476 2.522 25.63 0 22.482 0" fill-rule="evenodd"/></svg>