<svg width="28" height="26" viewBox="0 0 28 26" xmlns="http://www.w3.org/2000/svg"><path d="M12.766 21.863c-.163 0-.382-.045-.663-.16-.824-.33-1.858-1.66-1.858-3.222 0-2.737 2.534-4.18 2.575-5.947.08-.407.502-.947.882-.947.258 0 .497.246.596.947.042 1.768 2.632 3.21 2.632 5.95 0 1.56-1.167 2.89-1.992 3.222-.28.114-.484.16-.627.16-.465 0-.287-.487-.065-.694.412-.38 1.71-1.517 1.505-2.037-.037-.09-.093-.126-.167-.126-.36 0-1.116.893-1.696 1.16-.124.06-.227.084-.325.084-.146 0-.278-.054-.435-.132-.567-.28-1.1-1.117-1.385-1.117-.063 0-.113.04-.15.133-.207.52 1.05 1.658 1.462 2.038.22.208.25.694-.288.694m5.15-9.207c-.626 0-1.04-.443-1.163-.793-.146-.414.033-1.24.853-1.442.212-.05.424-.074.623-.074.575 0 1.057.2 1.163.506.143.413-.304 1.558-1.126 1.76-.123.03-.24.044-.35.044m-8.732-.083c-.108 0-.224-.014-.347-.044-.824-.2-1.317-1.35-1.172-1.76.107-.307.587-.507 1.164-.507.2 0 .41.024.623.076.822.2.998 1.025.853 1.44-.123.35-.505.794-1.122.794M5.67 0c-.407 0 1.52 2.4 1.354 6.502-.13.038-.25.057-.355.057-.926 0-1.056-1.355-2.653-1.993-.97-.387-1.948-.52-2.7-.52-.847 0-1.41.17-1.35.345 1.372 4.092 5.744 4.467 5.73 5.92 0 .727-.03.845 0 2.274.023 1.052 1.83 5.305 2.698 5.93.87.625.76 2.91 2.557 4.002l.06.038c-.757.76-.567 1.88-.054 2.22.003.002.005.003.01.003.06 0 .255-.255.467-.51.213-.257.444-.51.575-.51.066 0 .108.062.11.224C12.133 25.03 13.176 26 13.726 26h.02c.42-.02.73-2.03 1.025-2.03h.016c.19.047.852.877 1.176.877.012 0 .024 0 .034-.003.28-.025.89-1.46-.14-2.295l.042-.03c1.8-1.093 1.675-3.38 2.544-4.004.868-.625 2.835-4.878 2.86-5.93.03-1.377-.02-1.64.01-2.273-.015-1.454 4.363-1.74 5.737-5.83.064-.202-.735-.477-1.837-.477-.708 0-1.542.114-2.348.436-1.595.634-1.77 2.055-2.698 2.09-.176-4.12 1.643-6.518 1.23-6.518-.008 0-.016 0-.026.002-3.186.57-5.442 3.615-5.892 5.447H11.77l-.087.003C11.163 3.606 8.835.564 5.696.003L5.67 0" fill-rule="evenodd"/></svg>