<svg width="94" height="20" viewBox="0 0 94 20" fill="none" xmlns="http://www.w3.org/2000/svg">
<path d="M91.4932 4.62906C91.1413 4.62906 90.9307 4.76847 90.836 5.06842L88.6305 11.3878L86.0959 5.06842C85.9787 4.76717 85.7906 4.62906 85.4626 4.62906H83.328C82.9054 4.62906 82.7413 4.88425 82.9293 5.27756L87.2932 15L86.9413 15.7406C86.4012 16.8982 85.8626 17.3376 85.3225 17.3376C85.0173 17.3376 84.6895 17.2455 84.3839 17.106C84.0561 16.9442 83.7733 16.9903 83.6094 17.3139L82.9988 18.4714C82.8574 18.749 82.8813 19.0266 83.1627 19.2357C83.7255 19.6751 84.4066 20 85.3453 20C87.4332 20 88.6533 18.4728 89.7801 15.6485L93.9334 5.27756C94.0973 4.88425 93.9573 4.62906 93.5348 4.62906H91.4932ZM3.45866 9.97633C3.45866 8.26361 4.70265 7.12839 6.17999 7.12839C7.65865 7.12839 8.87867 8.26231 8.87867 9.97633C8.87867 11.6667 7.65865 12.8229 6.17999 12.8229C4.70265 12.8243 3.45866 11.6667 3.45866 9.97633ZM0.666656 10C0.666656 13.1479 2.98932 15.3236 5.92265 15.3236C7.236 15.3236 8.24533 14.7211 8.832 14.0963C8.808 16.2957 7.63467 17.2902 5.61732 17.2902C4.53867 17.2902 3.52932 16.9666 2.35599 16.226C2.05066 16.0182 1.69866 16.0866 1.53466 16.4115L0.830656 17.7769C0.666656 18.1005 0.713323 18.4018 1.04132 18.6109C2.49599 19.537 4.20933 20 5.68667 20C9.55866 20 11.6933 17.94 11.6933 13.1939V5.18547C11.6933 4.83819 11.4827 4.63036 11.1306 4.63036H9.536C9.184 4.63036 8.97333 4.83819 8.97333 5.18547V5.78794C8.33998 5.02367 7.16665 4.44489 5.99332 4.44489C3.13066 4.44489 0.666656 6.85214 0.666656 10ZM20.164 10C20.164 8.357 21.384 7.15206 22.8853 7.15206C24.3867 7.15206 25.6067 8.35569 25.6067 10C25.6067 11.643 24.3867 12.8466 22.8853 12.8466C21.3853 12.8466 20.164 11.643 20.164 10ZM17.3253 10C17.3253 13.2176 19.812 15.5551 22.8867 15.5551C25.9133 15.5551 28.448 13.2176 28.448 10C28.448 6.78242 25.9613 4.44489 22.8867 4.44489C19.86 4.44489 17.3253 6.78242 17.3253 10ZM44.7774 10C44.7774 8.357 45.9974 7.15206 47.4986 7.15206C49.0001 7.15206 50.2199 8.35569 50.2199 10C50.2199 11.643 49.0001 12.8466 47.4986 12.8466C45.9974 12.8466 44.7774 11.643 44.7774 10ZM41.9386 10C41.9386 13.2176 44.4254 15.5551 47.5 15.5551C50.5266 15.5551 53.0613 13.2176 53.0613 10C53.0613 6.78242 50.5747 4.44489 47.5 4.44489C44.4735 4.44489 41.9386 6.78242 41.9386 10ZM57.1893 10C57.1893 8.30967 58.4094 7.15206 59.8639 7.15206C61.3187 7.15206 62.5388 8.30967 62.5388 10C62.5388 11.7127 61.3187 12.8466 59.8639 12.8466C58.4094 12.8466 57.1893 11.7127 57.1893 10ZM57.0721 5.81031V5.18547C57.0721 4.83819 56.8612 4.63036 56.5093 4.63036H54.9375C54.5852 4.63036 54.3747 4.83819 54.3747 5.18547V19.2594C54.3747 19.6067 54.5852 19.8145 54.9375 19.8145H56.6734C57.0254 19.8145 57.236 19.6067 57.236 19.2594V14.3291C57.916 15.0237 59.0186 15.5564 60.1692 15.5564C63.0319 15.5564 65.3787 13.1492 65.3787 10.0013C65.3787 6.85347 62.9852 4.44619 60.1934 4.44619C58.8786 4.44489 57.776 5 57.0721 5.81031ZM73.7307 10C73.7307 8.28731 74.9507 7.15206 76.4053 7.15206C77.8601 7.15206 79.0799 8.28597 79.0799 10C79.0799 11.6903 77.8601 12.8466 76.4053 12.8466C74.9521 12.8466 73.7307 11.689 73.7307 10ZM70.8921 10C70.8921 13.1479 73.2854 15.5551 76.0775 15.5551C77.3906 15.5551 78.4946 15 79.1974 14.1897V14.8145C79.1974 15.1618 79.408 15.3696 79.7599 15.3696H81.3334C81.6854 15.3696 81.8959 15.1618 81.8959 14.8145V5.18547C81.8959 4.83819 81.6854 4.63036 81.3334 4.63036H79.7614C79.4094 4.63036 79.1988 4.83819 79.1988 5.18547V5.85636C78.5413 5.06972 77.3454 4.44489 76.1014 4.44489C73.2387 4.44489 70.8921 6.85214 70.8921 10ZM32.5774 10C32.5774 8.30967 33.7975 7.15206 35.252 7.15206C36.7065 7.15206 37.9266 8.30967 37.9266 10C37.9266 11.7127 36.7065 12.8466 35.252 12.8466C33.7975 12.8466 32.5774 11.7127 32.5774 10ZM30.3239 0.20784C29.9719 0.20784 29.7614 0.415681 29.7614 0.762958V14.8145C29.7614 15.1618 29.9719 15.3696 30.3239 15.3696H31.8959C32.2479 15.3696 32.4588 15.1618 32.4588 14.8145V14.2121C33.1388 14.9763 34.4067 15.5551 35.6492 15.5551C38.3947 15.5551 40.764 13.1018 40.764 10C40.764 6.85214 38.3705 4.44489 35.5787 4.44489C34.4519 4.44489 33.3494 4.93158 32.6227 5.67219V0.764272C32.6227 0.416994 32.4121 0.209156 32.0601 0.209156H30.3239V0.20784ZM67.2561 0.20784C66.9041 0.20784 66.6933 0.415681 66.6933 0.762958V14.8145C66.6933 15.1618 66.9041 15.3696 67.2561 15.3696H69.0159C69.3679 15.3696 69.5787 15.1618 69.5787 14.8145V0.764272C69.5787 0.416994 69.3679 0.209156 69.0159 0.209156H67.2561V0.20784ZM13.1493 0.856353V14.7224C13.1493 15.463 13.6187 15.7643 14.2987 15.463L15.1906 15.0697C15.7533 14.8145 16.012 14.4449 16.012 13.8424V1.73639C16.012 1.13391 15.7533 0.764272 15.1906 0.509078L14.2987 0.115759C14.1227 0.0381478 13.96 0 13.8173 0C13.4067 0 13.1493 0.307814 13.1493 0.856353Z" fill="#FB0234"/>
</svg>
