<svg xmlns="http://www.w3.org/2000/svg">
  <g
    id="footer-logo"
    viewBox="0 0 134 28"
  >
    <path d="M18.838.167c-.937-.435-1.606 0-1.606 1.035v19.413c0 1.036.636 1.47 1.606 1.036l1.238-.535c.77-.367 1.138-.868 1.138-1.704V2.44c0-.836-.368-1.37-1.138-1.704L18.838.167zm29.445 6.047c-1.573 0-3.079.669-4.083 1.704v-6.85c0-.5-.3-.768-.769-.768h-2.41c-.501 0-.769.301-.769.769v19.68c0 .501.301.768.77.768h2.175c.502 0 .77-.3.77-.768v-.835c.936 1.069 2.676 1.87 4.416 1.87 3.781 0 7.06-3.44 7.06-7.784 0-4.411-3.313-7.786-7.16-7.786zm-36.037.268c-.502 0-.77.3-.77.768v.835c-.87-1.069-2.509-1.87-4.115-1.87C3.413 6.214 0 9.588 0 13.998c0 4.411 3.212 7.452 7.26 7.452 1.808 0 3.213-.836 4.016-1.704-.034 3.073-1.64 4.477-4.45 4.477-1.472-.034-2.878-.468-4.484-1.504-.435-.3-.903-.2-1.137.268l-.97 1.904c-.235.434-.168.869.3 1.17C2.543 27.365 4.92 28 6.96 28c5.353 0 8.298-2.874 8.298-9.523V7.25c0-.501-.301-.768-.77-.768h-2.242zm18.47-.268c-4.182 0-7.696 3.275-7.696 7.785 0 4.511 3.447 7.786 7.696 7.786 4.183 0 7.696-3.275 7.696-7.786 0-4.51-3.446-7.785-7.696-7.785zm34.029 0c-4.183 0-7.696 3.275-7.696 7.785 0 4.511 3.447 7.786 7.696 7.786 4.182 0 7.696-3.275 7.696-7.786 0-4.51-3.447-7.785-7.696-7.785zm24.827 9.79c-.435 0-.669.2-.903.568-.57 1.003-1.54 1.404-2.71 1.404-2.041 0-3.614-1.704-3.614-3.976 0-2.306 1.606-3.977 3.614-3.977 1.137 0 2.007.468 2.576 1.337.234.4.535.568.937.568h2.61c.535 0 .836-.334.669-.869-.87-2.84-3.68-4.811-6.86-4.811-4.082 0-7.461 3.274-7.461 7.785 0 4.51 3.246 7.785 7.462 7.785 3.245 0 6.09-1.938 6.926-4.912.134-.534-.201-.835-.703-.835h-2.543v-.067zm12.313-9.79c-4.182 0-7.695 3.275-7.695 7.785 0 4.511 3.446 7.786 7.695 7.786 4.183 0 7.696-3.275 7.696-7.786 0-4.51-3.446-7.785-7.696-7.785zm25.463 0c-1.606 0-3.245.669-4.383 2.139-.836-1.237-2.242-2.139-4.015-2.139-1.74 0-2.978.769-3.781 1.805V7.25c0-.501-.301-.768-.77-.768h-2.174c-.502 0-.77.3-.77.768v13.465c0 .502.301.769.77.769h2.409c.502 0 .769-.3.769-.769v-7.384c0-2.105 1.037-3.374 2.677-3.374 1.606 0 2.476 1.102 2.476 3.24v7.518c0 .502.301.769.77.769h2.409c.502 0 .769-.3.769-.769v-7.384c0-2.105 1.038-3.374 2.677-3.374 1.64 0 2.476 1.102 2.476 3.24v7.518c0 .502.301.769.77.769h2.409c.502 0 .769-.3.769-.769V12.73c-.067-3.976-2.375-6.516-6.257-6.516zM7.628 17.942c-2.04 0-3.747-1.604-3.747-3.976 0-2.406 1.707-3.976 3.748-3.976 2.04 0 3.747 1.604 3.747 3.976-.033 2.372-1.706 3.976-3.747 3.976zm23.088.034c-2.074 0-3.747-1.671-3.747-3.976 0-2.306 1.673-3.977 3.747-3.977 2.075 0 3.748 1.671 3.748 3.976.033 2.306-1.673 3.977-3.748 3.977zm17.098 0c-2.007 0-3.714-1.604-3.714-3.976 0-2.373 1.673-3.977 3.714-3.977 2.008 0 3.714 1.604 3.714 3.976 0 2.406-1.706 3.977-3.714 3.977zm16.93 0c-2.074 0-3.747-1.671-3.747-3.976 0-2.306 1.673-3.977 3.748-3.977 2.074 0 3.747 1.671 3.747 3.976.034 2.306-1.673 3.977-3.747 3.977zm37.141 0c-2.074 0-3.747-1.671-3.747-3.976 0-2.306 1.673-3.977 3.747-3.977 2.075 0 3.748 1.671 3.748 3.976.033 2.306-1.64 3.977-3.748 3.977zm-26.466-1.37c-1.339 0-2.577 1.035-2.577 2.572 0 1.57 1.238 2.607 2.577 2.607 1.338 0 2.576-1.036 2.576-2.573 0-1.57-1.238-2.606-2.576-2.606z" fill="#fff" />
  </g>
</svg>