<?xml version="1.0" encoding="UTF-8"?>
<svg width="100%" viewBox="0 0 32 32" xmlns="http://www.w3.org/2000/svg">
<g id="icon-close-search"  width="100%">
    <path d="M15.996 9.545a6.488 6.488 0 00-6.488 6.488 6.488 6.488 0 006.488 6.489c3.601 0 6.522-2.922 6.522-6.489-.034-3.6-2.921-6.488-6.522-6.488zm0 0a6.488 6.488 0 00-6.488 6.488 6.488 6.488 0 006.488 6.489c3.601 0 6.522-2.922 6.522-6.489-.034-3.6-2.921-6.488-6.522-6.488zm10.908 14.03c-3.465.374-7.304.442-10.905.442-3.6 0-7.44-.068-10.904-.442-.985-.102-1.529-.34-1.665-1.427-.203-2.004-.203-4.042-.203-6.114s0-4.145.203-6.115c.102-1.087.646-1.325 1.665-1.427 3.465-.373 7.304-.441 10.904-.441 3.601 0 7.44.068 10.905.441 1.019.102 1.563.34 1.664 1.427.204 2.004.204 4.043.204 6.115s0 4.11-.204 6.114c-.136 1.053-.679 1.325-1.664 1.427zM16 0C7.168 0 0 7.202 0 16s7.168 16 16 16 16-7.202 16-16S24.832 0 16 0zm-.004 9.545a6.488 6.488 0 00-6.488 6.488 6.488 6.488 0 006.488 6.489c3.601 0 6.522-2.922 6.522-6.489-.034-3.6-2.921-6.488-6.522-6.488z" fill="#fff" />
  </g>
</svg>