<svg width="28" height="26" viewBox="0 0 28 26" xmlns="http://www.w3.org/2000/svg"><path d="M27.734 6.595c-.01-.94-2.588-4.992-8.337-5.68.073-.258.195-.677.223-.758-.637-.356-3.126-.122-4.487.86l-.05.007c-1.362-.99-3.4-.997-4.17-1.006.04.12.2 1.092.2 1.092S4.068.14.07 7.853c.128.314 2.202-.27 3.365-.328C1.43 10.277-.318 14.778 4.643 20.76c.213-.513 1.31-1.523 1.31-1.523 2.77 3.017 6.364 4.305 8.617 6.763.554-.437.64-1.793 2.468-2.585 1.827-.793 2.568-1.3 3.395-1.747 1.35-.726 2.32-1.998 3.34-4.493.39.173 1.488 1.313 1.488 1.313s2.446-2.17 2.444-5.057c0-2.218-.867-4.788-2.83-6.81.576-.027 1.88-.044 2.86-.025zM7.132 2.937c.883-.888 2.24-1.052 3.158-.195.22.204.386.44.5.69-1.66.65-2.87 1.83-3.416 2.837-.698-.494-2.05-1.513-.242-3.333zm10.005 16.12c0 .14-.12.252-.27.252h-4.636c-.15 0-.268-.113-.268-.252v-1.296l2.17-.85c.247-.112.652-.08.83 0l2.175.85v1.296zm1.705-6.633c.187 1.22-.21 2.907-.84 3.66l-2.612-.89v-1.89c0-.268 1.06-.92 1.373-1.215.315-.294.548-.506.46-1.217-.092-.714-.552-1.383.33-1.367.315.004.802-.423.816-.838.022-.72-.36-1.15-1.247-1.165-1.256-.02-1.744.918-1.704 1.418.02.295.338 2.145.345 2.385.006.226-.418.694-.793 1.022h-.832c-.38-.353-.798-.81-.813-1.1-.013-.235.336-2.012.358-2.306.04-.5-.484-1.42-1.687-1.404-.867.012-1.39.474-1.363 1.025.016.323.274.985 1.04.966.926-.026.323.653.233 1.367-.09.71-.113.923.202 1.216.317.293 1.572.922 1.578 1.195.005.252 0 1.93 0 1.93l-2.163.868c-.63-.754-1.453-2.45-1.29-3.66C7.85 10.12 7.46 9.68 7.66 8.944c.2-.735 1.367-4.714 6.742-4.692h.294c5.376-.02 6.54 3.958 6.744 4.693.202.735-.217 1.175-2.6 3.48zM22.43 5.84c-.196.185-.418.324-.655.43-.547-1.008-1.696-2.137-3.358-2.787.115-.253.47-.537.688-.74.92-.858 2.24-.66 3.158.194.917.858 1.085 2.046.167 2.904z" fill-rule="evenodd"/></svg>