<svg width="29" height="26" viewBox="0 0 29 26" xmlns="http://www.w3.org/2000/svg"><path d="M20.095 15.574l3.47-7.372 3.54 7.372h-7.01m-18.152 0L6.36 8.196l3.86 7.378H1.942M14.523 0c-.525 0-1.44 1.24-1.44 1.24v2.594c-2.927.026-3.86 1.18-6.48 1.51-.227.03-.568.047-.997.047-.926 0-2.262-.073-3.727-.243-.007 2.014 2.603 2.28 2.603 2.28s.3.042.736.047c-.924 1.48-4.086 6.577-4.685 8.05-.07.973 2.362 2.763 5.39 2.763 3.483 0 5.886-2.165 5.703-2.762-.65-1.603-3.97-7.497-4.455-8.354l.086-.027c.272-.112 3.523-.742 5.485-.742.116 0 .226.003.33.007.013 1.816.005 14.593-.002 15.683-.005 1.102-3.675 2.158-6.96 2.766.1.257.55 1.144.55 1.144h15.6s.452-.887.55-1.144c-3.285-.608-6.965-1.644-6.96-2.744.006-.912.006-9.83.005-15.71h.202c2.056 0 5.873.51 6.144.617l.12.04c-.014.027-3.02 6.738-3.722 8.465-.07.972 1.967 2.804 4.996 2.804 3.482 0 5.013-2.208 4.83-2.805-.603-1.487-3.05-6.665-3.73-8.09l.195-.008s2.086-.308 2.08-2.32c-1.782.16-2.884.27-3.623.27-.224 0-.41-.01-.576-.032-2.607-.33-4.02-1.47-6.916-1.508l-.002-2.597S15.004 0 14.523 0" fill-rule="evenodd"/></svg>