<svg width="28" height="26" viewBox="0 0 28 26" xmlns="http://www.w3.org/2000/svg"><path d="M6.75 18.04c-.5 0-.903.38-.903.842 0 .465.404.84.903.84.497 0 .902-.375.902-.84 0-.463-.405-.84-.902-.84m.645 4.02c-.452 0-.997-.225-1.426-.534-1.75-1.244-3.244-3.147-3.255-4.557-.003-.447 1.092-.907 1.867-.943 1.59-.077 2.623-.107 3.3-.107 1.486 0 1.28.145 1.542.266.38.18.718.344.724.733.024 1.312-.214 3.926-2.29 5.038-.135.07-.292.103-.463.103m17.644-11.4c-.178.004.066.962-.312 1.704-.28.547-.73.552-.894 1.562-.184-1.356-1.54-2.068-2.418-2.068-.11 0-.21.012-.302.034-.463.11 1.072.348.287 2.295-.52 1.29-.898 2.437 1.74 3.1-.06.472-1.844 1.85-3.95 1.85-.444 0-.9-.058-1.358-.2-.826-.26-1.998-1.255-3.465-2.21.1-.156.34-.393.955-.627.324-.123.593-.15.803-.15.076 0 .144.005.205.01.058.002.113.006.158.006.127 0 .193-.028.196-.156.026-.578-.116-1.995-3.107-2.224-.24-.02-.525-.034-.843-.034-1.145 0-2.685.2-3.813 1.2-.316-.012-.644-.018-.977-.018-2.69 0-5.744.37-7.06 1.186-.34.21-.353.615-.326.807C1.022 20.16 5.957 26 15.667 26c.378 0 .766-.01 1.16-.026.192-.428-1.062-2.28-.534-2.674 1.12.753 3.313 1.466 5.154 1.466h.024c-.07-1.177-1.64-2.082-1.09-2.63.51-.504 4.155-1.703 6.108-5.13 1.42-2.482-.088-6.34-1.45-6.345M20.77 6.3c-.477 0-.864.36-.864.803 0 .443.387.802.863.802.473 0 .86-.36.86-.8 0-.445-.387-.804-.86-.804m2.36 3.067c-4.764-.003-4.724-.145-5.105-.324-.383-.177-.718-.344-.725-.73-.024-1.315.478-3.764 2.554-4.876.166-.09.39-.13.634-.13.476 0 1.04.158 1.43.435 1.748 1.243 3.244 3.173 3.255 4.584.002.45-1.268 1.04-2.044 1.04M12.373 0c-.416 0-.84.01-1.274.03-.193.43.725 1.812.447 2.388-1.256-.513-2.24-1.148-5.354-1.182-.278.077.723.86 1.134 2.02-.507.503-4.285 1.702-6.24 5.13-1.418 2.48.222 6.342 1.58 6.343.18-.002-.066-.962.314-1.7.28-.55.73-.677.894-1.687.188 1.376 1.578 2.188 2.454 2.188.094 0 .185-.01.265-.03.463-.11-1.07-.35-.286-2.297.52-1.287.68-2.922-1.958-3.59.056-.447 1.796-1.41 3.817-1.41.558 0 1.138.075 1.708.252.834.26 2.018 1.228 3.5 2.15-.07.15-.288.42-.988.685-.326.126-.71.152-1.064.152-.125 0-.245-.004-.36-.007-.115-.004-.22-.006-.317-.006-.27 0-.45.023-.453.15-.027.578 1.428 1.874 4.42 2.102.118.01.238.014.36.014 1.077 0 2.407-.343 4.01-1.058l-.444-.173.11.01c.493.02 1.006.03 1.527.03 2.54 0 5.227-.26 6.475-1.035.338-.208.35-.614.324-.805C26.513 5.245 21.974 0 12.373 0" fill-rule="evenodd"/></svg>