<svg width="29" height="26" viewBox="0 0 29 26" xmlns="http://www.w3.org/2000/svg"><path d="M8.966 19.557l-.02-.016 11.62-10.804c3.56 3.785 3.895 8.238 3.912 10.818l-15.512.003m-1.24-1.202L7.684 3.942l.142-.003c.102-.002.202-.004.306-.004 3.1 0 7.624.705 11.16 3.635L7.727 18.356M2.674 0c-.93.997-.682 3.02.53 3.586.672.315 1.793.376 2.943.376h.184l.005 14.336h-1.31L.675 21.73l-.003.343 4.267-.002L4.94 26h.46l3.628-3.965.023-1.218 15.4-.004c-.04 1.022-.07 2.112.35 2.876.4.726 1.21 1.053 2.055 1.053.594 0 1.205-.162 1.703-.46-1.023-1.083-1.263-1.994-1.263-3.324 0-.9.07-2.33-.056-4.17-.17-2.436-1.57-7.01-4.506-10.07l1.618-1.507 2.293 2.07 1.958-7.21L20.84 2.04l2.225 2.01-1.605 1.5c-3.306-2.682-7.4-3.942-10.997-4.17-.688-.043-1.253-.057-1.738-.057-.442 0-.82.01-1.168.023-.348.012-.666.023-.99.023-.135 0-.27-.002-.41-.007C4.784 1.317 3.614.74 2.675 0" fill-rule="evenodd"/></svg>
