<svg width="29" height="26" viewBox="0 0 29 26" xmlns="http://www.w3.org/2000/svg"><path d="M16.91 7.9c-.49 0-.885-.134-.885-.576 0-.446.395-.655.885-.655.488 0 .883.17.883.615 0 .444-.395.614-.883.614m-4.218-.04c-.494 0-.867-.126-.867-.575 0-.45.373-.66.867-.66.493 0 .893.21.893.66 0 .45-.4.574-.893.574M6.422 0c-.233 0-.434.7-.716 1.402-.283.7-.65 1.4-1.22 1.4h-.03C3.083 2.803 2.55.156 1.812.143H1.81c-.766 0-1.467 4.38-.555 6.074.65 1.274 1.96 1.858 3.128 1.944.99.64 2.04.906 3.067.906.193 0 .383-.008.57-.026.694-.066 1.402-.358 2.043-.732-.125.493-.178 1.022-.182 1.567-1.17.198-1.503.596-2.494.725-.328.043-.646.057-.937.057-.272 0-.522-.012-.736-.024-.216-.013-.4-.024-.54-.024-.193 0-.303.023-.298.104.04.582.497 1.023 1.672 1.102.145.01.304.015.472.015.987 0 2.29-.154 2.938-.237.017.26.04.532.073.81-1.145.2-2.014.54-2.965.665-.3.04-.566.053-.797.053-.264 0-.486-.018-.664-.036-.18-.017-.315-.035-.407-.035-.104 0-.154.02-.15.095.04.583.394 1.1 1.568 1.18.136.01.29.013.45.013 1.112 0 2.717-.19 3.324-.267.11.333.25.672.43 1.012-1.027.238-1.845.658-2.73.775-.367.048-.665.063-.906.063-.175 0-.32-.008-.438-.016-.117-.008-.208-.015-.275-.015-.118 0-.164.023-.16.113.042.582.72.95 1.897 1.028.114.01.235.013.36.013 1.266 0 2.976-.368 3.103-.386l.252-.035c.464.5 1.04 1.003 1.763 1.497 1.698 1.164 3.028 1.807 2.326 3.88-.367 1.082-1.55 1.58-2.91 1.58-.413 0-.844-.046-1.27-.135.67-2.046.15-2.75-1.642-2.75-.085 0-.17.003-.26.006h-.025c-1.047 0-.645-2.14-.81-2.378-.03-.012-.07-.018-.112-.018-.62 0-2.443 1.23-2.55 3.094-.07 1.195.77 2.587 2.006 3.14C9.713 25.606 11.166 26 12.558 26c2.385 0 4.592-1.157 5.44-2.078 3.4-3.683 1.365-5.91.723-7.295l.22.03c.13.018 2.372.465 3.718.465.11 0 .214-.002.312-.01 1.173-.08 1.55-.527 1.59-1.11.005-.09-.073-.113-.23-.113-.092 0-.21.006-.352.014s-.31.016-.506.016c-.267 0-.586-.015-.952-.063-1.03-.136-1.95-.7-3.244-.887l-.136-.01c.157-.254.333-.562.508-.97l.318.048c.124.016 2.225.3 3.58.3.162 0 .312-.004.448-.013 1.176-.08 1.964-.597 2.004-1.18.005-.074-.08-.096-.235-.096-.136 0-.327.017-.56.034-.232.018-.507.037-.81.037-.262 0-.548-.013-.846-.052-.998-.13-2.146-.502-3.39-.695.057-.262.107-.535.143-.827.27.037 2.263.325 3.557.325.153 0 .293-.003.423-.012 1.175-.08 1.588-.562 1.628-1.144.005-.08-.06-.105-.198-.105-.097 0-.23.01-.398.023-.167.012-.37.024-.605.024-.253 0-.545-.014-.874-.057-1.032-.133-1.95-.564-3.245-.75l-.257-.02c-.04-.663-.13-1.288-.29-1.85.757.527 1.664.976 2.55 1.06.186.018.374.026.562.026 1.09 0 2.203-.305 3.247-1.03.685-.248 1.382-.792 1.912-1.738 1.26-2.14.442-6.114-.123-6.114h-.002c-.734.008-1.768 2.565-2.78 2.565h-.004c-1.03-.006-.628-2.664-1.18-2.672h-.004c-.695 0-2.668 3.16-.87 6.312-.135.335-.485 1.02-1.03 1.02-.03 0-.06-.002-.093-.006-1.697-.236-3.175-1.81-3.452-2.057-.04-.035-.07-.05-.093-.05-.05 0-.063.068-.053.184l-.1-.082c1.796-1.334 2.25-2.662 1.518-2.693-.018-.002-.035-.002-.053-.002-1.053 0-1.2 1.272-2.405 1.29h-.003c-.515 0-1.033-1.282-1.75-1.282h-.904c-.717 0-1.19 1.283-1.706 1.283h-.004c-1.208-.018-1.648-1.33-2.338-1.33l-.034.002c-.717.18-.106 1.653 1.103 2.616l-.06.045-.057.022c-.277.246-1.754 1.82-3.454 2.057-.03.004-.06.007-.09.007-.6 0-.96-.825-1.067-1.104C8.74 3.253 7.037.453 6.517.038 6.485.012 6.453 0 6.423 0" fill-rule="evenodd"/></svg>