<svg width="34" height="26" viewBox="0 0 34 26" xmlns="http://www.w3.org/2000/svg"><path d="M15.974 21.343h-.04c-.464.018-.758.3-.454.846.205.368.666.58 1.01.58.098 0 .185-.014.254-.05.31-.16.123-1.377-.77-1.377m2.35 0c-.892 0-1.08 1.217-.77 1.376.07.036.158.05.253.05.345 0 .806-.212 1.01-.58.307-.546.01-.83-.453-.847h-.04m-5.25-5.99c-.392 0-.793-.14-1.023-.543-.47-.83-.217-1.36.502-1.387h.08c1.373 0 1.743 1.497 1.263 1.74-.215.106-.516.19-.82.19m8.146 0c-.302 0-.606-.084-.82-.19-.48-.243-.108-1.74 1.266-1.74h.08c.718.028.97.556.498 1.387-.228.404-.63.543-1.023.543m-4.516 9.042c-2 0-3.148-.6-3.14-1.523.014-2.43 2.143-5.125 2.13-7.986-.022-4.62-4.158-4.713-3.428-5.587.718-.168 3.165-.33 5.464-.33 1.858 0 3.62.105 4.294.4.294.422-3.376.896-3.407 5.556-.022 3.497 2.26 5.532 2.26 8.006 0 .746-1.606 1.366-3.726 1.453-.152.007-.3.01-.446.01M33.132 0c-.898 0-3.194 4.008-4.947 4.28-.906.14-2.678.2-4.526.22v-.573c0-.548-.456-.992-1.017-.992H11.536c-.56 0-1.014.444-1.014.992v.575c-1.945-.016-3.85-.073-4.803-.22C3.97 4.01 1.887.04 1.077.04.858.043.73.336.73 1.077c0 4.19 2.442 6.988 5.426 7.38-3.685 1.215-4.085 5.31-3.396 5.31h.01c.67 0 2.43-.82 3.865-1.307.443-.153.808-.206 1.105-.206.162 0 .305.017.43.04.758 2.747 2.084 5.168 3.808 7.91.91 1.445-.57 2.945.615 4.312C13.8 25.906 15.873 26 17.11 26h.065c1.246-.003 3.216.01 4.527-1.344 1.105-1.146-.08-3.005.496-3.957 1.707-2.834 2.734-6.005 3.332-8.443.09-.01.187-.015.29-.015.335 0 .735.056 1.205.217 1.434.487 2.11 1.307 2.77 1.307h.01c.69.002.598-3.862-2.62-5.252 3.25-.09 6.33-3.038 6.33-7.485 0-.738-.14-1.03-.383-1.03" fill-rule="evenodd"/></svg>