<svg width="71" height="24" fill="none" xmlns="http://www.w3.org/2000/svg">
  <path fill-rule="evenodd" clip-rule="evenodd" d="M43.036 3.986v-.399h-1.454V2.551h1.131v-.36h-1.131v-.916h1.414V.916h-1.94v3.07h1.98zM45.34 3.069l-.445-.12c-.08.439-.283.718-.606.718-.444 0-.646-.439-.646-1.116v-.24c0-.637.202-1.116.646-1.116.323 0 .485.2.606.678l.485-.12c-.121-.558-.444-.917-1.05-.917-.728 0-1.172.558-1.172 1.515v.12c0 .957.444 1.515 1.172 1.515.565.04.889-.359 1.01-.917zM47.845 2.51v-.159c0-.957-.444-1.515-1.172-1.515-.727 0-1.172.558-1.172 1.515v.12c0 .957.445 1.515 1.172 1.515.728.04 1.172-.518 1.172-1.475zm-.485.04c0 .678-.202 1.077-.646 1.077-.445 0-.647-.439-.647-1.116v-.2c0-.677.202-1.116.647-1.116.444 0 .646.439.646 1.116v.24zM50.431 3.986V.916h-.484v2.233h-.04L48.774.916h-.566v3.07h.485V1.634l1.212 2.352h.526zM52.614.718L52.129 0h-.364l-.525.718h.242l.485-.4.485.4h.162zm.484 1.794v-.16c0-.957-.444-1.515-1.172-1.515-.727 0-1.171.558-1.171 1.515v.12c0 .957.444 1.515 1.171 1.515.728.04 1.172-.519 1.172-1.475zm-.484.04c0 .677-.203 1.076-.647 1.076-.445 0-.647-.439-.647-1.116v-.2c0-.677.202-1.116.647-1.116.444 0 .647.439.647 1.116v.24zM56.574 3.986V.916h-.808l-.728 2.432h-.04L54.23.916h-.768v3.07h.445V1.394h.04l.808 2.592h.485l.808-2.592h.04v2.592h.486zM58.27 3.986v-.24h-.444v-2.63h.445v-.2h-1.374v.2h.445v2.63h-.445v.24h1.374zM60.695 3.069l-.444-.12c-.08.439-.283.718-.606.718-.485 0-.647-.439-.647-1.116v-.24c0-.637.202-1.116.647-1.116.323 0 .485.2.566.678l.484-.12c-.12-.558-.444-.917-1.05-.917-.728 0-1.172.558-1.172 1.515v.12c0 .957.444 1.515 1.172 1.515.606.04.93-.359 1.05-.917zM63.2 2.51v-.159c0-.957-.444-1.515-1.17-1.515-.728 0-1.173.558-1.173 1.515v.12c0 .957.445 1.515 1.172 1.515.727.04 1.172-.518 1.172-1.475zm-.484.04c0 .678-.202 1.077-.647 1.077-.444 0-.646-.439-.646-1.116v-.2c0-.677.202-1.116.646-1.116.445 0 .647.439.647 1.116v.24zM19.922 2.112c.121-.319.283-.518.647-.518h1.94c.04 0 .08-.04.08-.08v-.478c0-.04-.04-.08-.08-.08H16.77c-.04 0-.08.04-.08.08v.478c0 .04.04.08.08.08h2.182c.202 0 .323.12.323.239 0 .08-.04.2-.08.319l-5.9 15.707h-.081L7.234 1.793v-.08c0-.04.04-.12.12-.12H9.74c.04 0 .08-.04.08-.08v-.477c0-.04-.04-.08-.08-.08H.08c-.04 0-.081.04-.081.08v.478c0 .04.04.08.08.08h2.143c.12 0 .202.08.242.199l8.567 21.887c.04.04.08.08.121.08h.566c.04 0 .08-.04.121-.08l8.082-21.568zM59.362 8.81c0-.04-.04-.08-.08-.08h-2.425c-.04 0-.081-.039-.081-.079v-.478c0-.04.04-.08.08-.08H61.1c.687 0 1.576-.08 1.94-.08.08 0 .12.04.12.12v3.19h.081c.728-1.835 2.304-3.47 4.769-3.47 2.303 0 3.03 1.396 3.03 2.792 0 1.514-.646 2.232-2.141 2.232-1.253 0-1.94-.757-1.94-1.953 0-.838.242-1.396.242-1.834 0-.24-.202-.32-.444-.32-.849 0-1.697.997-2.384 1.875-.566.757-1.091 2.192-1.091 4.425v7.933c0 .04.04.08.08.08h2.466c.04 0 .08.04.08.08v.478c0 .04-.04.08-.08.08h-9.012c-.04 0-.08-.04-.08-.08v-.478c0-.04.04-.08.08-.08h2.465c.04 0 .081-.04.081-.08V8.811z" fill="#9DA3AE" />
  <path fill-rule="evenodd" clip-rule="evenodd" d="M48.855 24c-4.727 0-7.96-3.15-7.96-8.013 0-4.864 3.273-8.133 7.96-8.133 4.728 0 7.961 3.23 7.961 8.133 0 4.864-3.273 8.013-7.96 8.013zm3.678-8.013c0-4.346-.728-6.26-1.778-6.977-.445-.319-1.253-.518-1.94-.518s-1.495.199-1.94.518c-1.01.718-1.778 2.631-1.778 6.977 0 4.345.728 6.14 1.778 6.897.445.319 1.253.518 1.94.518s1.495-.2 1.94-.518c1.05-.758 1.778-2.552 1.778-6.897zM38.672 23.002c0 .04.04.08.08.08h2.466c.04 0 .08.04.08.08v.478c0 .04-.04.08-.08.08h-10.83c-2.465 0-3.112-1.076-3.273-1.953h-.121c-.647 1.275-2.142 2.192-4.122 2.192-2.95 0-5.456-1.515-5.456-4.584 0-2.153 1.415-3.868 5.658-4.625 1.01-.2 2.303-.518 2.99-.718.89-.239.97-.398.97-.797V11.76c0-2.352-.93-3.31-2.99-3.31-1.091 0-1.738.32-1.738 1.197 0 .678.08 1.236.08 1.794 0 1.036-.646 1.754-1.939 1.754-1.293 0-2.02-.877-2.02-1.754 0-2.631 2.99-3.628 5.778-3.628 5.173 0 6.749 1.794 6.749 5.86v7.296c0 1.714.687 2.113 1.98 2.113h1.738c.04 0 .08-.04.08-.08V1.674c.04-.04 0-.08-.04-.08h-2.425c-.04 0-.08-.04-.08-.08v-.478c0-.04.04-.08.08-.08h4.324c.687 0 1.576-.08 1.94-.08.08 0 .121.04.121.12v22.006zm-11.598-8.571c-.606.2-1.858.518-2.95.797-1.858.479-2.505 1.475-2.505 4.226 0 2.193.808 3.628 2.142 3.628 2.182 0 3.313-1.874 3.313-3.508V14.43z" fill="#9DA3AE" />
</svg>