<svg width="26" height="26" viewBox="0 0 26 26" xmlns="http://www.w3.org/2000/svg"><path d="M14.95 16.387h-4.274c-.056.498.772 1.37 1.49 1.37h1.39c.984-.182 1.38-.835 1.394-1.37zm-5.806-2.693h1.464v-1.366H9.144v1.366zm5.858 0h1.464v-1.366h-1.464v1.366zm-10.644 1.24c-.735 0-1.258-.553-1.37-1.272-.106-.705.172-1.636 1.206-1.638.12 0 .25.014.393.04-.05.823 0 1.686.413 2.734-.166.088-.24.092-.44.12-.068.01-.136.015-.202.015zm18.04 0c-.067 0-.134-.005-.203-.015-.202-.03-.274-.034-.44-.122.412-1.048.462-1.91.414-2.733.14-.027.27-.04.39-.04 1.035 0 1.313.932 1.205 1.637-.11.72-.634 1.27-1.368 1.27zM6.38 12.235c2.82 0 8.82-1.985 9.977-4.443.05 2.628 2.046 4.25 4.458 4.63.22.9-.438 6.218-5.355 7.697-.662.256-1.54.383-2.454.383-1.42 0-2.924-.308-3.854-.937-1.548-1.046-2.992-3.212-2.913-7.33h.14zM5.27 8.256c-.455-.258-.692-1.018-.42-1.44.84-1.293 4.85-3.64 8.32-3.66h.038c3.07 0 6.64 1.973 7.738 3.655.275.427.085 1.185-.368 1.443-2.384-1.954-5.11-2.78-7.33-2.78-2.7 0-6.347 1.106-7.98 2.783zM12.86 0C4.95 0 .36 6.397.36 12.618c0 1.567 1.49 5.37 1.497 7.657C1.867 24.29-.275 26 .7 26h.022c3.843-.018 8.45-2.17 8.527-4.67 1.48.402 2.634.62 3.792.62 1.047 0 2.097-.178 3.398-.565 0 2.845 4.374 4.57 8.38 4.615h.02c1.258 0-1.125-1.684-1.107-5.702.01-2.31 1.427-6.113 1.455-7.68C25.193 6.556 20.638 0 12.86 0z" fill-rule="evenodd"/></svg>